<mxfile host="app.diagrams.net" modified="2023-01-18T10:01:38.296Z" agent="5.0 (Windows NT 10.0; Win64; x64) AppleWebKit/537.36 (KHTML, like Gecko) Chrome/109.0.0.0 Safari/537.36 Edg/109.0.1518.55" etag="Vt6XOfFSpNBFma4AqYNw" version="20.8.5" type="github">
  <diagram id="zIpmrHKljPA6NFoTWR1B" name="第 1 页">
    <mxGraphModel dx="1195" dy="657" grid="1" gridSize="10" guides="1" tooltips="1" connect="1" arrows="1" fold="1" page="1" pageScale="1" pageWidth="827" pageHeight="1169" math="0" shadow="0">
      <root>
        <mxCell id="0" />
        <mxCell id="1" parent="0" />
        <mxCell id="Ji0CEcyrEnFxUZOUWHjL-6" value="" style="rounded=1;whiteSpace=wrap;html=1;strokeColor=#000000;strokeWidth=2;fontFamily=Times New Roman;fontSize=15;" parent="1" vertex="1">
          <mxGeometry x="305" y="170" width="190" height="360" as="geometry" />
        </mxCell>
        <mxCell id="Ji0CEcyrEnFxUZOUWHjL-1" value="&lt;span style=&quot;font-size: 11px;&quot;&gt;&lt;font style=&quot;font-size: 15px;&quot; face=&quot;Times New Roman&quot;&gt;&lt;b&gt;Multi-Head&lt;br style=&quot;&quot;&gt;Attention&lt;/b&gt;&lt;/font&gt;&lt;/span&gt;" style="rounded=1;whiteSpace=wrap;html=1;fillColor=#fad7ac;strokeColor=#b46504;strokeWidth=2;" parent="1" vertex="1">
          <mxGeometry x="340" y="470" width="120" height="50" as="geometry" />
        </mxCell>
        <mxCell id="Ji0CEcyrEnFxUZOUWHjL-2" value="&lt;b&gt;Add &amp;amp; Norm&lt;/b&gt;" style="rounded=1;whiteSpace=wrap;html=1;strokeColor=#36393d;strokeWidth=2;fontFamily=Times New Roman;fontSize=13;fillColor=#f9f7ed;" parent="1" vertex="1">
          <mxGeometry x="340" y="430" width="120" height="20" as="geometry" />
        </mxCell>
        <mxCell id="Ji0CEcyrEnFxUZOUWHjL-3" value="&lt;font style=&quot;font-size: 15px;&quot; face=&quot;Times New Roman&quot;&gt;&lt;b&gt;&lt;span style=&quot;&quot;&gt;Feed&lt;br&gt;&lt;/span&gt;Forward&lt;/b&gt;&lt;/font&gt;" style="rounded=1;whiteSpace=wrap;html=1;fillColor=#cce5ff;strokeColor=#36393d;strokeWidth=2;" parent="1" vertex="1">
          <mxGeometry x="340" y="350" width="120" height="50" as="geometry" />
        </mxCell>
        <mxCell id="Ji0CEcyrEnFxUZOUWHjL-5" value="&lt;b&gt;Add &amp;amp; Norm&lt;/b&gt;" style="rounded=1;whiteSpace=wrap;html=1;strokeColor=#36393d;strokeWidth=2;fontFamily=Times New Roman;fontSize=13;fillColor=#f9f7ed;" parent="1" vertex="1">
          <mxGeometry x="340" y="180" width="120" height="20" as="geometry" />
        </mxCell>
      </root>
    </mxGraphModel>
  </diagram>
</mxfile>
